<svg width="82" height="72" viewBox="0 0 82 72" fill="none" xmlns="http://www.w3.org/2000/svg">
<path d="M71.875 9.375H61.0469L55.7227 1.39063C55.4374 0.963092 55.0511 0.612512 54.598 0.369944C54.1449 0.127376 53.639 0.000308613 53.125 0H28.125C27.611 0.000308613 27.1051 0.127376 26.652 0.369944C26.1989 0.612512 25.8126 0.963092 25.5273 1.39063L20.1992 9.375H9.375C6.8886 9.375 4.50403 10.3627 2.74587 12.1209C0.987721 13.879 0 16.2636 0 18.75V62.5C0 64.9864 0.987721 67.371 2.74587 69.1291C4.50403 70.8873 6.8886 71.875 9.375 71.875H71.875C74.3614 71.875 76.746 70.8873 78.5041 69.1291C80.2623 67.371 81.25 64.9864 81.25 62.5V18.75C81.25 16.2636 80.2623 13.879 78.5041 12.1209C76.746 10.3627 74.3614 9.375 71.875 9.375ZM75 62.5C75 63.3288 74.6708 64.1237 74.0847 64.7097C73.4987 65.2958 72.7038 65.625 71.875 65.625H9.375C8.5462 65.625 7.75134 65.2958 7.16529 64.7097C6.57924 64.1237 6.25 63.3288 6.25 62.5V18.75C6.25 17.9212 6.57924 17.1263 7.16529 16.5403C7.75134 15.9542 8.5462 15.625 9.375 15.625H21.875C22.3896 15.6253 22.8963 15.4986 23.3502 15.256C23.804 15.0134 24.191 14.6625 24.4766 14.2344L29.7969 6.25H51.4492L56.7734 14.2344C57.059 14.6625 57.446 15.0134 57.8998 15.256C58.3536 15.4986 58.8604 15.6253 59.375 15.625H71.875C72.7038 15.625 73.4987 15.9542 74.0847 16.5403C74.6708 17.1263 75 17.9212 75 18.75V62.5ZM40.625 21.875C37.2256 21.875 33.9026 22.883 31.0761 24.7716C28.2497 26.6602 26.0467 29.3445 24.7458 32.4851C23.4449 35.6257 23.1046 39.0816 23.7678 42.4156C24.4309 45.7497 26.0679 48.8122 28.4716 51.2159C30.8753 53.6196 33.9378 55.2566 37.2719 55.9198C40.6059 56.5829 44.0618 56.2426 47.2024 54.9417C50.343 53.6408 53.0273 51.4378 54.9159 48.6114C56.8045 45.7849 57.8125 42.4619 57.8125 39.0625C57.8073 34.5057 55.9949 30.137 52.7727 26.9148C49.5505 23.6926 45.1818 21.8802 40.625 21.875ZM40.625 50C38.4618 50 36.3471 49.3585 34.5485 48.1567C32.7498 46.9549 31.3479 45.2467 30.5201 43.2481C29.6922 41.2495 29.4756 39.0504 29.8977 36.9287C30.3197 34.807 31.3614 32.8582 32.891 31.3285C34.4207 29.7989 36.3695 28.7572 38.4912 28.3352C40.6129 27.9131 42.812 28.1297 44.8106 28.9576C46.8092 29.7854 48.5174 31.1873 49.7192 32.986C50.921 34.7846 51.5625 36.8993 51.5625 39.0625C51.5625 41.9633 50.4102 44.7453 48.359 46.7965C46.3078 48.8477 43.5258 50 40.625 50Z" fill="white"/>
</svg>
