<svg width="266" height="81" viewBox="0 0 266 81" fill="none" xmlns="http://www.w3.org/2000/svg">
<path d="M129.658 14.6458L136.158 3L156.158 38.8333M129.658 14.6458L142.247 38.8333M129.658 14.6458L116.158 38.8333M142.247 38.8333L145.977 46H160.158L156.158 38.8333M142.247 38.8333H156.158M142.247 38.8333H116.158M112.158 46L116.158 38.8333M4.08807 79H2L9.93679 57.1818H12.0675L20.0043 79H17.9162L11.0767 59.7706H10.9276L4.08807 79ZM5.5902 70.6371H16.4141V72.4268H5.5902V70.6371ZM29.7436 79V57.1818H36.7855C38.3338 57.1818 39.6264 57.4624 40.6634 58.0234C41.7074 58.5774 42.4922 59.348 43.0178 60.3352C43.5504 61.3153 43.8168 62.441 43.8168 63.7124C43.8168 64.9837 43.5504 66.1058 43.0178 67.0788C42.4922 68.0518 41.7109 68.8118 40.674 69.3587C39.6371 69.9055 38.3516 70.179 36.8175 70.179H30.8196V68.3572H36.7642C37.9006 68.3572 38.8452 68.169 39.598 67.7926C40.358 67.4162 40.9226 66.88 41.2919 66.1839C41.6683 65.4879 41.8565 64.6641 41.8565 63.7124C41.8565 62.7607 41.6683 61.9297 41.2919 61.2195C40.9155 60.5021 40.3473 59.9482 39.5874 59.5575C38.8345 59.1669 37.8828 58.9716 36.7322 58.9716H31.7358V79H29.7436ZM39.3636 69.1562L44.733 79H42.4318L37.1158 69.1562H39.3636ZM54.6694 57.1818H56.9705L64.886 76.1875H65.0778L72.9933 57.1818H75.2944V79H73.4194V61.3899H73.2489L65.8874 79H64.0764L56.7148 61.3899H56.5444V79H54.6694V57.1818ZM87.1271 79H85.0391L92.9759 57.1818H95.1065L103.043 79H100.955L94.1158 59.7706H93.9666L87.1271 79ZM88.6293 70.6371H99.4531V72.4268H88.6293V70.6371ZM126.853 64C126.654 63.2756 126.363 62.5973 125.98 61.9652C125.596 61.326 125.12 60.7685 124.552 60.2926C123.991 59.8097 123.341 59.4332 122.602 59.1634C121.871 58.8935 121.054 58.7585 120.152 58.7585C118.732 58.7585 117.46 59.1278 116.338 59.8665C115.216 60.6051 114.328 61.6705 113.675 63.0625C113.029 64.4545 112.705 66.1307 112.705 68.0909C112.705 70.044 113.032 71.7166 113.686 73.1087C114.339 74.5007 115.234 75.5696 116.37 76.3153C117.514 77.054 118.82 77.4233 120.291 77.4233C121.633 77.4233 122.819 77.125 123.849 76.5284C124.879 75.9318 125.681 75.0795 126.257 73.9716C126.839 72.8636 127.123 71.5462 127.109 70.0192L127.748 70.2216H120.759V68.4318H129.048V70.2216C129.048 72.0824 128.671 73.6911 127.919 75.0476C127.166 76.4041 126.132 77.4517 124.818 78.1903C123.504 78.929 121.995 79.2983 120.291 79.2983C118.387 79.2983 116.722 78.8402 115.294 77.924C113.867 77.0007 112.755 75.701 111.96 74.0249C111.171 72.3416 110.777 70.3636 110.777 68.0909C110.777 66.3793 111.004 64.8345 111.459 63.4567C111.914 62.0788 112.556 60.8999 113.387 59.9197C114.225 58.9396 115.216 58.1903 116.36 57.6719C117.503 57.1463 118.767 56.8835 120.152 56.8835C121.345 56.8835 122.436 57.0717 123.423 57.4482C124.417 57.8246 125.291 58.343 126.044 59.0036C126.803 59.657 127.425 60.4134 127.908 61.2727C128.398 62.125 128.728 63.0341 128.899 64H126.853ZM139.994 79V57.1818H152.65V58.9716H141.986V67.1854H151.979V68.9751H141.986V77.2102H152.863V79H139.994ZM170.198 79H163.806V57.1818H170.582C172.663 57.1818 174.442 57.6151 175.919 58.4815C177.403 59.348 178.54 60.5909 179.328 62.2102C180.116 63.8295 180.511 65.772 180.511 68.0376C180.511 70.3246 180.106 72.2884 179.296 73.929C178.494 75.5625 177.322 76.816 175.781 77.6896C174.246 78.5632 172.386 79 170.198 79ZM165.798 77.2102H170.081C171.956 77.2102 173.526 76.8409 174.79 76.1023C176.054 75.3636 177.002 74.3089 177.634 72.9382C178.266 71.5675 178.582 69.934 178.582 68.0376C178.575 66.1555 178.263 64.5362 177.645 63.1797C177.034 61.8232 176.125 60.7827 174.918 60.0582C173.717 59.3338 172.233 58.9716 170.464 58.9716H165.798V77.2102ZM197.731 79H191.339V57.1818H198.115C200.196 57.1818 201.975 57.6151 203.452 58.4815C204.937 59.348 206.073 60.5909 206.861 62.2102C207.65 63.8295 208.044 65.772 208.044 68.0376C208.044 70.3246 207.639 72.2884 206.829 73.929C206.027 75.5625 204.855 76.816 203.314 77.6896C201.78 78.5632 199.919 79 197.731 79ZM193.331 77.2102H197.614C199.489 77.2102 201.059 76.8409 202.323 76.1023C203.587 75.3636 204.535 74.3089 205.167 72.9382C205.8 71.5675 206.116 69.934 206.116 68.0376C206.108 66.1555 205.796 64.5362 205.178 63.1797C204.567 61.8232 203.658 60.7827 202.451 60.0582C201.251 59.3338 199.766 58.9716 197.998 58.9716H193.331V77.2102ZM236.76 68.0909C236.76 70.3636 236.355 72.3416 235.545 74.0249C234.735 75.701 233.62 77.0007 232.2 77.924C230.787 78.8402 229.16 79.2983 227.321 79.2983C225.481 79.2983 223.851 78.8402 222.431 77.924C221.017 77.0007 219.906 75.701 219.096 74.0249C218.294 72.3416 217.892 70.3636 217.892 68.0909C217.892 65.8182 218.294 63.8438 219.096 62.1676C219.906 60.4844 221.021 59.1847 222.441 58.2685C223.862 57.3452 225.488 56.8835 227.321 56.8835C229.16 56.8835 230.787 57.3452 232.2 58.2685C233.62 59.1847 234.735 60.4844 235.545 62.1676C236.355 63.8438 236.76 65.8182 236.76 68.0909ZM234.821 68.0909C234.821 66.1378 234.494 64.4652 233.841 63.0732C233.187 61.674 232.296 60.6051 231.167 59.8665C230.037 59.1278 228.755 58.7585 227.321 58.7585C225.893 58.7585 224.615 59.1278 223.485 59.8665C222.356 60.6051 221.461 61.6705 220.801 63.0625C220.147 64.4545 219.821 66.1307 219.821 68.0909C219.821 70.044 220.147 71.7166 220.801 73.1087C221.454 74.5007 222.346 75.5696 223.475 76.3153C224.604 77.054 225.886 77.4233 227.321 77.4233C228.755 77.4233 230.037 77.054 231.167 76.3153C232.303 75.5767 233.198 74.5114 233.851 73.1193C234.505 71.7202 234.828 70.044 234.821 68.0909ZM264.57 57.1818V79H262.631L249.74 60.7294H249.57V79H247.578V57.1818H249.506L262.439 75.4737H262.61V57.1818H264.57Z" stroke="white" stroke-width="2"/>
</svg>
