<svg width="30" height="30" viewBox="0 0 30 30" fill="none" xmlns="http://www.w3.org/2000/svg">
<g clip-path="url(#clip0_64_11)">
<g filter="url(#filter0_d_64_11)">
<path d="M15 25H26.25M20.625 4.37504C21.1223 3.87776 21.7967 3.59839 22.5 3.59839C22.8482 3.59839 23.193 3.66698 23.5147 3.80023C23.8365 3.93349 24.1288 4.12881 24.375 4.37504C24.6212 4.62127 24.8165 4.91358 24.9498 5.2353C25.0831 5.55701 25.1517 5.90182 25.1517 6.25004C25.1517 6.59826 25.0831 6.94307 24.9498 7.26478C24.8165 7.58649 24.6212 7.87881 24.375 8.12504L8.75 23.75L3.75 25L5 20L20.625 4.37504Z" stroke="#A6D8D4" stroke-width="2" stroke-linecap="round" stroke-linejoin="round" shape-rendering="crispEdges"/>
</g>
</g>
<defs>
<filter id="filter0_d_64_11" x="-1.25" y="2.59839" width="32.5" height="31.4016" filterUnits="userSpaceOnUse" color-interpolation-filters="sRGB">
<feFlood flood-opacity="0" result="BackgroundImageFix"/>
<feColorMatrix in="SourceAlpha" type="matrix" values="0 0 0 0 0 0 0 0 0 0 0 0 0 0 0 0 0 0 127 0" result="hardAlpha"/>
<feOffset dy="4"/>
<feGaussianBlur stdDeviation="2"/>
<feComposite in2="hardAlpha" operator="out"/>
<feColorMatrix type="matrix" values="0 0 0 0 0 0 0 0 0 0 0 0 0 0 0 0 0 0 0.25 0"/>
<feBlend mode="normal" in2="BackgroundImageFix" result="effect1_dropShadow_64_11"/>
<feBlend mode="normal" in="SourceGraphic" in2="effect1_dropShadow_64_11" result="shape"/>
</filter>
<clipPath id="clip0_64_11">
<rect width="30" height="30" fill="white"/>
</clipPath>
</defs>
</svg>
