<svg width="34" height="34" viewBox="0 0 34 34" fill="none" xmlns="http://www.w3.org/2000/svg">
<path d="M21.7457 7.8625C20.6692 7.86231 19.6357 8.28464 18.8674 9.03863C18.0991 9.79262 17.6574 10.818 17.6373 11.8943L17.5977 14.1256C17.5955 14.2455 17.5681 14.3636 17.517 14.4722C17.466 14.5807 17.3926 14.6772 17.3016 14.7554C17.2106 14.8335 17.1041 14.8915 16.9891 14.9256C16.8741 14.9596 16.7532 14.9689 16.6343 14.9529L14.4215 14.6512C11.5131 14.2545 8.72509 12.9157 6.04901 10.6873C5.20326 15.3765 6.85651 18.6249 10.8416 21.131L13.3165 22.6865C13.4339 22.7603 13.5314 22.8618 13.6006 22.982C13.6698 23.1021 13.7085 23.2374 13.7134 23.376C13.7183 23.5146 13.6892 23.6523 13.6287 23.7771C13.5681 23.9018 13.478 24.0099 13.3661 24.0918L11.1108 25.7408C12.4523 25.8258 13.7259 25.7663 14.7828 25.5567C21.4666 24.2222 25.9107 19.193 25.9107 10.897C25.9107 10.2198 24.4756 7.8625 21.7457 7.8625ZM14.804 11.8433C14.8287 10.4777 15.2558 9.14978 16.0316 8.02573C16.8075 6.90168 17.8977 6.03149 19.1658 5.5241C20.4339 5.01672 21.8235 4.8947 23.1606 5.17331C24.4977 5.45192 25.7229 6.11879 26.6828 7.09042C27.69 7.08333 28.5471 7.33833 30.4624 6.17525C29.9893 8.49858 29.7541 9.50867 28.744 10.8956C28.744 21.7203 22.0899 26.9861 15.3367 28.3333C10.7084 29.257 3.97501 27.7397 2.04834 25.7238C3.03009 25.6488 7.02509 25.2195 9.33426 23.528C7.37926 22.2388 -0.39541 17.663 4.71451 5.3635C7.11292 8.16425 9.54534 10.0697 12.0103 11.0826C13.6494 11.7555 14.0532 11.7413 14.8054 11.8447L14.804 11.8433Z" fill="#8B8B8B"/>
</svg>
