<svg width="34" height="34" viewBox="0 0 34 34" fill="none" xmlns="http://www.w3.org/2000/svg">
<path fill-rule="evenodd" clip-rule="evenodd" d="M33.1569 23.8919C32.3863 22.3399 31.3708 20.9221 30.1493 19.6929C29.7408 19.2313 29.3131 18.787 28.8673 18.3613L28.8134 18.3088C28.6479 18.1481 28.4845 17.9852 28.3233 17.8201C29.9929 15.4983 31.4217 13.0124 32.5874 10.401L32.6342 10.2962L32.6668 10.1857C32.8212 9.67143 32.9968 8.69393 32.3735 7.80993C31.7275 6.89759 30.6948 6.73326 30.002 6.73326H26.8188C26.1522 6.70289 25.4932 6.88413 24.9359 7.25106C24.3786 7.61799 23.9517 8.1518 23.7163 8.77609C23.0312 10.4076 22.1735 11.9611 21.1578 13.41V9.67993C21.1578 9.19826 21.1124 8.39076 20.5953 7.71076C19.9777 6.89476 19.0838 6.73326 18.4633 6.73326H13.4114C12.7522 6.71809 12.1124 6.95704 11.6245 7.40062C11.1367 7.84419 10.8381 8.45842 10.7906 9.11609L10.7863 9.17984V9.24359C10.7863 9.93068 11.0583 10.4378 11.2765 10.7566C11.3743 10.8997 11.4777 11.03 11.5443 11.1122L11.5584 11.1306C11.6293 11.2184 11.676 11.2765 11.7228 11.3417C11.8474 11.5088 12.0245 11.7695 12.0755 12.441V14.5278C11.0614 12.8296 10.2299 11.0289 9.59492 9.15576L9.58359 9.12459L9.57225 9.09484C9.39942 8.64293 9.12317 7.98559 8.56925 7.48409C7.92325 6.89618 7.15825 6.73326 6.46267 6.73326H3.23267C2.52859 6.73326 1.68 6.89759 1.04675 7.56484C0.424837 8.22218 0.354004 9.00984 0.354004 9.42634V9.61618L0.393671 9.80034C1.28801 13.9523 3.131 17.8409 5.77842 21.162C6.98879 23.0707 8.63199 24.6672 10.5748 25.8221C12.5175 26.977 14.7051 27.6577 16.9602 27.809L17.0183 27.8133H17.0778C18.1063 27.8133 19.1787 27.724 19.9848 27.1871C21.0713 26.4618 21.1578 25.3497 21.1578 24.7943V23.1822C21.4368 23.4088 21.7825 23.712 22.2061 24.12C22.7189 24.6328 23.1269 25.0777 23.4768 25.4658L23.6638 25.6727C23.9358 25.9758 24.2036 26.2748 24.4473 26.5198C24.7533 26.8273 25.1315 27.1658 25.6047 27.4166C26.1189 27.6872 26.6587 27.8104 27.231 27.8104H30.4624C31.1438 27.8104 32.1199 27.6489 32.807 26.8528C33.555 25.9858 33.4983 24.9218 33.2632 24.1583L33.2207 24.0208L33.1569 23.8919ZM25.0536 24.0421C24.6145 23.5513 24.1624 23.0723 23.6978 22.6056L23.6936 22.6013C21.7712 20.7483 20.8744 20.4268 20.2398 20.4268C19.9012 20.4268 19.5286 20.4636 19.2863 20.7668C19.1773 20.9114 19.1057 21.0807 19.0781 21.2598C19.0439 21.4676 19.0288 21.6782 19.0328 21.8888V24.7943C19.0328 25.1556 18.9733 25.3072 18.8061 25.4177C18.5837 25.5664 18.1091 25.6868 17.0905 25.6868C15.1556 25.5552 13.2796 24.9662 11.6168 23.9683C9.95387 22.9703 8.55158 21.592 7.52517 19.9465L7.51384 19.9281L7.49967 19.9111C5.03342 16.8414 3.31462 13.2404 2.479 9.39234C2.48467 9.20818 2.52434 9.09626 2.5895 9.02826C2.65609 8.95743 2.819 8.85826 3.23267 8.85826H6.46267C6.82109 8.85826 7.00809 8.93759 7.14267 9.05801C7.29284 9.19684 7.426 9.43059 7.58467 9.84709C8.378 12.1789 9.449 14.3606 10.4648 15.9628C10.9719 16.7647 11.4706 17.4319 11.9211 17.9037C12.1463 18.1388 12.3659 18.3343 12.577 18.4732C12.7796 18.6063 13.0105 18.7126 13.2485 18.7126C13.3732 18.7126 13.5191 18.6984 13.6593 18.6375C13.8108 18.5706 13.9355 18.4549 14.0135 18.3088C14.1594 18.0425 14.2005 17.6501 14.2005 17.1358V12.3574C14.1254 11.1986 13.7755 10.5455 13.4355 10.0823C13.3666 9.9896 13.2958 9.89844 13.223 9.80884L13.2046 9.78618C13.1442 9.7128 13.0865 9.63719 13.0318 9.55951C12.962 9.47288 12.92 9.36722 12.9113 9.25634C12.9225 9.14377 12.9762 9.0397 13.0615 8.96543C13.1468 8.89117 13.2573 8.85232 13.3703 8.85684H18.4633C18.7551 8.85684 18.8528 8.92768 18.9024 8.99426C18.9733 9.08634 19.0328 9.27759 19.0328 9.67993V16.0946C19.0328 16.8568 19.3841 17.3724 19.8941 17.3724C20.4806 17.3724 20.9042 17.0168 21.6437 16.2773L21.6564 16.2632L21.6678 16.2504C23.3266 14.2278 24.682 11.9743 25.6911 9.56093L25.6968 9.54393C25.7726 9.3307 25.9161 9.14813 26.1054 9.02407C26.2946 8.90002 26.5193 8.84129 26.7451 8.85684H30.0034C30.4454 8.85684 30.5899 8.97018 30.6381 9.03676C30.6877 9.10759 30.7231 9.25918 30.6381 9.55668C29.4744 12.1582 28.0359 14.6278 26.347 16.9233L26.3357 16.9403C26.1728 17.1911 25.9928 17.4688 25.9673 17.7861C25.939 18.1289 26.0863 18.4392 26.3456 18.7735C26.534 19.0512 26.9236 19.4323 27.3188 19.819L27.3557 19.8558C27.7693 20.261 28.2184 20.7002 28.5783 21.1252L28.5882 21.1351L28.5981 21.1464C29.6711 22.2167 30.5634 23.4539 31.2402 24.8099C31.3478 25.1783 31.2827 25.3681 31.1977 25.4658C31.0999 25.5792 30.8803 25.6854 30.4638 25.6854H27.231C27.0107 25.6908 26.7927 25.6396 26.5978 25.5367C26.3589 25.3977 26.1421 25.2239 25.9546 25.021C25.752 24.8184 25.5324 24.5733 25.2633 24.2744L25.055 24.0421H25.0536Z" fill="#8B8B8B"/>
</svg>
